<?xml version="1.0" encoding="utf-8"?>
<!-- Generated by IcoMoon.io -->
<!DOCTYPE svg PUBLIC "-//W3C//DTD SVG 1.1//EN" "http://www.w3.org/Graphics/SVG/1.1/DTD/svg11.dtd">
<svg version="1.1" xmlns="http://www.w3.org/2000/svg" xmlns:xlink="http://www.w3.org/1999/xlink" width="512" height="512" viewBox="0 0 512 512">
<g>
</g>
	<path d="M337.408 289.536c-18.381 0-33.28 20.634-33.28 46.055 0 25.447 14.899 46.080 33.28 46.080s33.28-20.634 33.28-46.080c-0.026-25.447-14.925-46.055-33.28-46.055zM453.274 169.625c3.789-9.344 3.968-62.464-16.231-113.305 0 0-46.387 5.069-116.531 53.222-14.72-4.070-39.629-6.093-64.512-6.093-24.909 0-49.792 2.048-64.537 6.093-70.118-48.154-116.48-53.222-116.48-53.222-20.198 50.841-20.045 103.962-16.23 113.305-23.757 25.805-38.272 56.781-38.272 99.097 0 183.962 152.627 186.905 191.155 186.905 8.73 0 26.087 0.026 44.39 0.051 18.304-0.026 35.661-0.051 44.339-0.051 38.553 0 191.155-2.944 191.155-186.905 0-42.317-14.49-73.293-38.246-99.097zM256.717 433.024h-1.408c-96.563 0-171.776-11.52-171.776-105.37 0-22.477 7.962-43.341 26.778-60.647 31.463-28.851 84.633-13.568 144.999-13.568 0.231 0 0.487 0 0.717-0.025 0.256 0 0.486 0.025 0.691 0.025 60.365 0 113.562-15.283 144.999 13.568 18.816 17.305 26.752 38.17 26.752 60.647 0 93.85-75.161 105.37-171.75 105.37zM174.618 289.536c-18.381 0-33.28 20.634-33.28 46.055 0 25.447 14.899 46.080 33.28 46.080s33.28-20.634 33.28-46.080c0-25.447-14.899-46.055-33.28-46.055z" fill="#000000" />
</svg>
